<!-- Generated by IcoMoon.io -->
<svg version="1.1"
	xmlns="http://www.w3.org/2000/svg" width="32" height="32" viewBox="0 0 448 448">
	<g id="icomoon-ignore">
	</g>
	<path fill="#503c2a" d="M168 224c0 30.928 25.072 56 56 56s56-25.072 56-56c0-30.928-25.072-56-56-56v0c-30.928 0-56 25.072-56 56v0zM252 224c0 15.464-12.536 28-28 28s-28-12.536-28-28c0-15.464 12.536-28 28-28v0c15.464 0 28 12.536 28 28v0z"></path>
	<path fill="#503c2a" d="M224 380.38l-78.4-78.26-19.6 19.88 98 98 98-98-19.74-19.74-78.26 78.12z"></path>
	<path fill="#503c2a" d="M224 67.62l78.12 77.98 19.88-19.6-98-98-98 98 19.74 19.74 78.26-78.12z"></path>
</svg>
