<!-- Generated by IcoMoon.io -->
<svg version="1.1"
	xmlns="http://www.w3.org/2000/svg" width="32" height="32" viewBox="0 0 448 448">
	<g id="icomoon-ignore">
	</g>
	<path fill="#000" d="M134.062 171.202l-26.399-26.399-79.196 79.197 79.196 79.195 26.399-26.398-52.797-52.797 52.797-52.798z"></path>
	<path fill="#000" d="M313.938 276.797l26.398 26.398 79.195-79.195-79.195-79.197-26.398 26.399 52.797 52.798-52.797 52.797z"></path>
	<path fill="#000" d="M279.998 224c0-30.929-25.073-56-56-56-30.929 0-56 25.071-56 56s25.071 56 56 56c30.927 0 56-25.071 56-56zM242.665 224c0 10.31-8.357 18.667-18.667 18.667s-18.667-8.357-18.667-18.667c0-10.31 8.357-18.667 18.667-18.667s18.667 8.357 18.667 18.667z"></path>
</svg>
